<?xml version="1.0" encoding="UTF-8" standalone="no"?>
<!DOCTYPE svg PUBLIC "-//W3C//DTD SVG 1.1//EN" "http://www.w3.org/Graphics/SVG/1.1/DTD/svg11.dtd">
<svg width="100%" height="100%" viewBox="0 0 1800 700" version="1.1" xmlns="http://www.w3.org/2000/svg" xmlns:xlink="http://www.w3.org/1999/xlink" xml:space="preserve" xmlns:serif="http://www.serif.com/" style="fill-rule:evenodd;clip-rule:evenodd;stroke-linecap:round;stroke-linejoin:round;stroke-miterlimit:10;">
    <g transform="matrix(1,0,0,1,-8100,-3375)">
        <g id="Page-26" serif:id="Page 26" transform="matrix(4.16667,0,0,4.16667,8100,3375)">
            <rect x="0" y="0" width="432" height="168" style="fill:none;"/>
            <g id="Locomotion-fast--lean" serif:id="Locomotion fast, lean">
                <g transform="matrix(0.933241,0.35925,0.35925,-0.933241,114.435,127.24)">
                    <path d="M5.113,-2.239C7.151,-0.891 6.38,0.43 5.82,1.982C5.261,3.533 5.016,5.492 5.113,6.674C5.306,9.032 5.293,11.106 6.395,15.919C7.496,20.733 10.318,24.553 12.049,27.517" style="fill:none;fill-rule:nonzero;stroke:rgb(35,31,32);stroke-width:0.75px;"/>
                </g>
                <g transform="matrix(1,0,0,1,135.331,99.6037)">
                    <path d="M0,5.991C1.594,4.813 3.284,3.848 4.921,2.803C6.555,1.762 8.176,0.676 9.537,-0.722C8.269,0.762 6.703,1.965 5.132,3.114C3.56,4.264 1.929,5.344 0.468,6.577C0.312,6.713 0.075,6.695 -0.061,6.539C-0.196,6.382 -0.179,6.145 -0.022,6.01C-0.017,6.005 -0.006,5.996 0,5.991" style="fill:rgb(35,31,32);fill-rule:nonzero;"/>
                </g>
                <g transform="matrix(0.70832,-0.705892,-0.705892,-0.70832,117.377,133.625)">
                    <path d="M-0.42,1.017C-0.42,1.017 1.15,-0.001 2.462,1.017" style="fill:none;fill-rule:nonzero;stroke:rgb(35,31,32);stroke-width:0.75px;"/>
                </g>
                <g transform="matrix(-0.0265676,0.999647,0.999647,0.0265676,116.684,132.066)">
                    <path d="M-2.173,-1.007C-2.173,-1.007 -0.317,-2.151 0.951,-1.007" style="fill:none;fill-rule:nonzero;stroke:rgb(35,31,32);stroke-width:0.75px;"/>
                </g>
                <g transform="matrix(1,0,0,1,115.203,132.149)">
                    <path d="M0,-0.808C0,-0.808 -0.625,0 -2.029,0C-3.433,0 -3.854,-0.387 -4.31,-0.405" style="fill:none;fill-rule:nonzero;stroke:rgb(35,31,32);stroke-width:0.75px;"/>
                </g>
                <g transform="matrix(1,0,0,1,107.174,132.876)">
                    <path d="M0,0.184C0,0.184 0.21,1.237 1.579,0.746C2.948,0.254 3.562,-0.886 4.097,-1.053" style="fill:none;fill-rule:nonzero;stroke:rgb(35,31,32);stroke-width:0.75px;"/>
                </g>
                <g transform="matrix(-0.774989,0.631975,0.631975,0.774989,108.548,132.704)">
                    <path d="M-4.902,-1.745C-3.762,-1.679 -0.87,-2.408 0.621,-1.745" style="fill:none;fill-rule:nonzero;stroke:rgb(35,31,32);stroke-width:0.75px;"/>
                </g>
                <g transform="matrix(1,0,0,1,102.257,131.41)">
                    <path d="M0,1.763C0,1.763 0.69,2.08 1.571,0.932C2.011,0.358 2.474,0.033 2.878,-0.317" style="fill:none;fill-rule:nonzero;stroke:rgb(35,31,32);stroke-width:0.75px;"/>
                </g>
                <g transform="matrix(1,0,0,1,109.685,130.213)">
                    <path d="M0,-2.465C-0.842,-1.815 -1.417,-1.699 -2.833,-2.465C-4.25,-3.231 -4.864,-3.396 -6.127,-2.132C-7.391,-0.869 -8.042,-0.18 -8.271,0.931" style="fill:none;fill-rule:nonzero;stroke:rgb(35,31,32);stroke-width:0.75px;"/>
                </g>
                <g transform="matrix(1,0,0,1,104.89,130.48)">
                    <path d="M0,0.33C0.492,0.084 0.916,-0.253 1.203,-0.779C1.173,-0.197 0.882,0.419 0.49,0.897L0.472,0.92C0.337,1.085 0.093,1.109 -0.072,0.975C-0.237,0.839 -0.261,0.596 -0.126,0.431C-0.091,0.388 -0.046,0.353 0,0.33" style="fill:rgb(35,31,32);fill-rule:nonzero;"/>
                </g>
                <g transform="matrix(1,0,0,1,117.315,130.311)">
                    <path d="M0,-2.743C-0.652,-2.062 -1.158,-1.197 -1.212,-0.367C-1.226,-0.158 -1.406,0 -1.615,-0.014C-1.823,-0.027 -1.982,-0.207 -1.968,-0.416C-1.966,-0.452 -1.958,-0.489 -1.946,-0.521C-1.574,-1.556 -0.804,-2.242 0,-2.743" style="fill:rgb(35,31,32);fill-rule:nonzero;"/>
                </g>
                <g transform="matrix(1,0,0,1,113.736,128.717)">
                    <path d="M0,-1.762C-0.835,-1.34 -1.688,-0.832 -2.238,-0.188L-2.246,-0.179C-2.381,-0.02 -2.621,0 -2.78,-0.137C-2.939,-0.273 -2.958,-0.512 -2.823,-0.671C-2.8,-0.698 -2.773,-0.722 -2.745,-0.741C-1.861,-1.332 -0.931,-1.561 0,-1.762" style="fill:rgb(35,31,32);fill-rule:nonzero;"/>
                </g>
                <g transform="matrix(1,0,0,1,111.6,128.208)">
                    <path d="M0,-1.685C-0.602,-1.21 -1.183,-0.704 -1.685,-0.163C-1.828,-0.009 -2.068,0 -2.222,-0.143C-2.376,-0.286 -2.385,-0.527 -2.242,-0.68C-2.213,-0.711 -2.179,-0.737 -2.144,-0.756C-1.44,-1.135 -0.726,-1.426 0,-1.685" style="fill:rgb(35,31,32);fill-rule:nonzero;"/>
                </g>
                <g transform="matrix(0.937391,0.348278,0.348278,-0.937391,105.331,130.78)">
                    <path d="M-0.06,-0.335C-0.06,-0.335 0.539,-0.829 1.866,-0.335" style="fill:none;fill-rule:nonzero;stroke:rgb(35,31,32);stroke-width:0.75px;"/>
                </g>
                <g transform="matrix(0.969452,-0.24528,-0.24528,-0.969452,98.4929,131.636)">
                    <path d="M0.069,0.395C0.069,0.395 1.321,-0.932 3.412,0.395" style="fill:none;fill-rule:nonzero;stroke:rgb(35,31,32);stroke-width:0.75px;"/>
                </g>
                <g transform="matrix(1,0,0,1,105.91,129.196)">
                    <path d="M0,-2.718C0,-2.718 -0.575,-4.03 -2.565,-3.685C-4.556,-3.34 -4.729,-1.981 -5.457,-1.559C-6.184,-1.138 -7.639,0.47 -8.021,1.312" style="fill:none;fill-rule:nonzero;stroke:rgb(35,31,32);stroke-width:0.75px;"/>
                </g>
                <g transform="matrix(1,0,0,1,115.986,133.771)">
                    <path d="M0,-0.953C0.052,-0.78 0.121,-0.593 0.195,-0.422C0.268,-0.254 0.36,-0.073 0.454,0.026L0.455,0.026L0.223,0.215C0.147,0.087 0.085,-0.035 0.037,-0.186C0.002,-0.336 -0.073,-0.514 0.083,-0.805C0.212,-0.967 0.449,-0.993 0.61,-0.863C0.771,-0.733 0.798,-0.498 0.668,-0.336C0.671,-0.418 0.589,-0.323 0.571,-0.225C0.542,-0.124 0.531,0.003 0.528,0.117L0.527,0.163C0.525,0.252 0.451,0.323 0.361,0.321C0.338,0.32 0.316,0.315 0.296,0.306L0.294,0.305C0.05,0.191 -0.091,0.033 -0.247,-0.119C-0.397,-0.276 -0.531,-0.432 -0.666,-0.608L-0.67,-0.614C-0.797,-0.782 -0.765,-1.021 -0.596,-1.148C-0.428,-1.276 -0.189,-1.243 -0.062,-1.075C-0.033,-1.038 -0.013,-0.996 0,-0.953" style="fill:rgb(35,31,32);fill-rule:nonzero;"/>
                </g>
                <g transform="matrix(1,0,0,1,107.263,132.927)">
                    <path d="M0,-0.956C-0.18,-0.767 -0.36,-0.522 -0.496,-0.28C-0.632,-0.034 -0.732,0.231 -0.737,0.497L-0.737,0.498L-0.991,0.391C-0.88,0.268 -0.77,0.154 -0.639,0.044C-0.497,-0.06 -0.394,-0.185 -0.089,-0.241C0.118,-0.241 0.286,-0.073 0.286,0.134C0.286,0.341 0.118,0.509 -0.089,0.509C-0.089,0.467 -0.264,0.484 -0.387,0.516C-0.522,0.548 -0.667,0.597 -0.801,0.649L-0.837,0.663C-0.92,0.695 -1.014,0.654 -1.047,0.571L-1.055,0.541L-1.056,0.54C-1.133,0.193 -1.083,-0.157 -0.994,-0.478C-0.898,-0.805 -0.776,-1.099 -0.599,-1.408C-0.495,-1.589 -0.264,-1.651 -0.083,-1.548C0.098,-1.443 0.161,-1.212 0.057,-1.031C0.042,-1.005 0.02,-0.977 0,-0.956" style="fill:rgb(35,31,32);fill-rule:nonzero;"/>
                </g>
                <g transform="matrix(1,0,0,1,101.764,133.53)">
                    <path d="M0,-2.252C-0.081,-2.077 -0.15,-1.839 -0.19,-1.621C-0.231,-1.398 -0.245,-1.17 -0.229,-0.945C-0.202,-0.494 -0.019,-0.062 0.294,0.288L0.296,0.29L0.026,0.407C-0.024,0.086 -0.035,-0.274 0.246,-0.64L0.342,-0.766C0.487,-0.955 0.758,-0.991 0.947,-0.846C1.136,-0.701 1.172,-0.431 1.027,-0.241C0.954,-0.147 0.849,-0.09 0.739,-0.075C0.595,-0.057 0.421,0.175 0.347,0.407L0.331,0.457C0.305,0.54 0.217,0.585 0.135,0.559C0.113,0.552 0.093,0.54 0.077,0.525L0.074,0.522C-0.339,0.181 -0.648,-0.319 -0.759,-0.864C-0.818,-1.135 -0.84,-1.412 -0.83,-1.688C-0.816,-1.968 -0.786,-2.224 -0.7,-2.523C-0.642,-2.722 -0.433,-2.837 -0.234,-2.779C-0.034,-2.722 0.082,-2.513 0.024,-2.314C0.019,-2.296 0.012,-2.278 0.005,-2.263L0,-2.252Z" style="fill:rgb(35,31,32);fill-rule:nonzero;"/>
                </g>
                <g transform="matrix(1,0,0,1,98.21,131.277)">
                    <path d="M0,-0.576C-0.246,-0.275 -0.508,0.113 -0.545,0.468L-0.546,0.471L-0.806,0.37C-0.675,0.221 -0.543,0.083 -0.392,-0.053C-0.23,-0.182 -0.101,-0.324 0.211,-0.414L0.397,-0.467C0.63,-0.533 0.873,-0.398 0.939,-0.166C1.006,0.067 0.871,0.31 0.638,0.376C0.518,0.41 0.394,0.391 0.294,0.331C0.239,0.299 0.041,0.348 -0.112,0.404C-0.275,0.463 -0.444,0.539 -0.603,0.619L-0.63,0.633C-0.71,0.674 -0.808,0.642 -0.849,0.562C-0.855,0.548 -0.86,0.533 -0.863,0.519L-0.864,0.516C-0.933,0.246 -0.9,-0.011 -0.855,-0.252C-0.806,-0.497 -0.741,-0.719 -0.643,-0.962C-0.564,-1.156 -0.343,-1.25 -0.149,-1.172C0.045,-1.093 0.14,-0.872 0.061,-0.678C0.046,-0.641 0.023,-0.604 0,-0.576" style="fill:rgb(35,31,32);fill-rule:nonzero;"/>
                </g>
                <g transform="matrix(0.380888,0.924621,0.924621,-0.380888,61.0501,102.635)">
                    <path d="M14.398,-13.492C14.398,-13.492 16.834,-12.301 15.096,-9.183C13.358,-6.066 14.437,-2.618 14.398,0.005C14.362,2.63 13.771,3.204 16.796,10.653C18.833,15.661 18.767,19.476 18.486,22.188" style="fill:none;fill-rule:nonzero;stroke:rgb(35,31,32);stroke-width:0.75px;"/>
                </g>
                <g transform="matrix(1,0,0,1,88.4292,110.201)">
                    <path d="M0,0.746C0.5,0.547 0.99,0.283 1.478,0C1.967,-0.275 2.455,-0.596 2.995,-0.779C2.512,-0.483 2.122,-0.079 1.701,0.303C1.283,0.687 0.847,1.069 0.355,1.406C0.185,1.525 -0.051,1.483 -0.17,1.312C-0.289,1.141 -0.247,0.906 -0.076,0.787C-0.053,0.77 -0.024,0.756 0,0.746" style="fill:rgb(35,31,32);fill-rule:nonzero;"/>
                </g>
                <g transform="matrix(1,0,0,1,88.6069,105.121)">
                    <path d="M0,6.156C0,6.156 3.047,5.046 5.688,4.166C7.839,3.448 10.881,2.01 13.65,0" style="fill:none;fill-rule:nonzero;stroke:rgb(35,31,32);stroke-width:0.75px;"/>
                </g>
                <g transform="matrix(1,0,0,1,102.037,104.432)">
                    <path d="M0,0.385L2.059,-0.773L0.44,0.992C0.298,1.148 0.057,1.158 -0.099,1.016C-0.254,0.873 -0.265,0.632 -0.123,0.476C-0.095,0.446 -0.063,0.421 -0.03,0.402L0,0.385Z" style="fill:rgb(35,31,32);fill-rule:nonzero;"/>
                </g>
                <g transform="matrix(0.735785,-0.677215,-0.677215,-0.735785,50.6119,120.423)">
                    <path d="M-0.433,1.11C0.645,1.886 2.845,1.11 2.845,1.11" style="fill:none;fill-rule:nonzero;stroke:rgb(35,31,32);stroke-width:0.75px;"/>
                </g>
                <g transform="matrix(-0.988161,0.153423,0.153423,0.988161,50.3178,120.719)">
                    <path d="M-2.734,-0.211C-1.919,0.05 0.016,-0.211 0.016,-0.211" style="fill:none;fill-rule:nonzero;stroke:rgb(35,31,32);stroke-width:0.75px;"/>
                </g>
                <g transform="matrix(1,0,0,1,50.3003,119.429)">
                    <path d="M0,1.457C-0.308,1.415 -0.692,1.451 -1.046,1.502L-1.047,1.502L-1.06,1.504C-1.149,1.516 -1.233,1.462 -1.261,1.38C-1.332,1.177 -1.315,0.959 -1.267,0.769C-1.215,0.572 -1.151,0.406 -1.035,0.218L-1.014,0.183C-0.9,-0.001 -0.66,-0.059 -0.476,0.055C-0.292,0.167 -0.234,0.408 -0.347,0.592C-0.382,0.648 -0.43,0.693 -0.482,0.725C-0.579,0.781 -0.696,0.89 -0.779,0.988C-0.865,1.092 -0.929,1.203 -0.945,1.323L-1.16,1.201L-1.159,1.201C-0.818,1.007 -0.49,0.826 -0.062,0.71L-0.048,0.706C0.157,0.65 0.368,0.771 0.423,0.976C0.479,1.181 0.358,1.392 0.153,1.447C0.103,1.462 0.049,1.464 0,1.457" style="fill:rgb(35,31,32);fill-rule:nonzero;"/>
                </g>
                <g transform="matrix(1,0,0,1,51.8037,118.004)">
                    <path d="M0,-0.668C0.24,-0.731 0.436,-0.753 0.649,-0.775C0.858,-0.795 1.065,-0.803 1.271,-0.804C1.683,-0.803 2.088,-0.77 2.485,-0.707C2.088,-0.645 1.701,-0.553 1.329,-0.434C1.143,-0.372 0.96,-0.305 0.785,-0.23C0.614,-0.155 0.428,-0.066 0.299,0.019C0.124,0.136 -0.112,0.089 -0.229,-0.086C-0.346,-0.261 -0.299,-0.498 -0.124,-0.614C-0.088,-0.639 -0.05,-0.655 -0.011,-0.666L0,-0.668Z" style="fill:rgb(35,31,32);fill-rule:nonzero;"/>
                </g>
                <g transform="matrix(0.828147,0.560511,0.560511,-0.828147,53.1951,119.81)">
                    <path d="M-0.18,-0.589C-0.18,-0.589 0.903,-0.976 1.919,-0.589" style="fill:none;fill-rule:nonzero;stroke:rgb(35,31,32);stroke-width:0.75px;"/>
                </g>
                <g transform="matrix(1,0,0,1,40.0522,119.673)">
                    <path d="M0,1.319C0,1.319 -0.083,2.14 1.563,0.848C2.598,0.036 3.058,-0.493 3.551,-0.821" style="fill:none;fill-rule:nonzero;stroke:rgb(35,31,32);stroke-width:0.75px;"/>
                </g>
                <g transform="matrix(1,0,0,1,45.4683,118.424)">
                    <path d="M0,-1.768C0,-1.768 -1.779,-2.938 -3.578,-1.582C-3.578,-1.582 -5.742,0.003 -6.191,1.17" style="fill:none;fill-rule:nonzero;stroke:rgb(35,31,32);stroke-width:0.75px;"/>
                </g>
                <g transform="matrix(1,0,0,1,43.396,118.952)">
                    <path d="M0,-0.412C0.277,-0.549 0.513,-0.601 0.767,-0.659C1.017,-0.709 1.267,-0.739 1.517,-0.748C2.015,-0.768 2.508,-0.706 2.967,-0.565C2.487,-0.582 2.018,-0.516 1.578,-0.378C1.358,-0.31 1.146,-0.225 0.945,-0.125C0.751,-0.027 0.541,0.096 0.415,0.213C0.262,0.356 0.021,0.348 -0.122,0.194C-0.265,0.04 -0.256,-0.2 -0.103,-0.343C-0.076,-0.369 -0.045,-0.39 -0.014,-0.405L0,-0.412Z" style="fill:rgb(35,31,32);fill-rule:nonzero;"/>
                </g>
                <g transform="matrix(1,0,0,1,42.8467,120.872)">
                    <path d="M0,1.847C0,1.847 -0.271,2.397 1.337,1.517C2.159,1.067 3.052,0.053 3.417,-0.55" style="fill:none;fill-rule:nonzero;stroke:rgb(35,31,32);stroke-width:0.75px;"/>
                </g>
                <g transform="matrix(1,0,0,1,43.6035,121.933)">
                    <path d="M0,-3.081C-0.082,-3.021 -0.571,-2.646 -1.069,-1.412C-1.305,-0.828 -1.614,-0.475 -1.655,0" style="fill:none;fill-rule:nonzero;stroke:rgb(35,31,32);stroke-width:0.75px;"/>
                </g>
                <g transform="matrix(0.90393,-0.427681,-0.427681,-0.90393,46.4623,123.767)">
                    <path d="M-0.162,1.136C-0.162,1.136 2.676,-0.715 5.253,1.136" style="fill:none;fill-rule:nonzero;stroke:rgb(35,31,32);stroke-width:0.75px;"/>
                </g>
                <g transform="matrix(-0.510458,0.859903,0.859903,0.510458,46.2371,121.811)">
                    <path d="M-1.295,-0.737C-0.694,-0.73 -0.107,-0.749 0.42,-0.737" style="fill:none;fill-rule:nonzero;stroke:rgb(35,31,32);stroke-width:0.75px;"/>
                </g>
                <g transform="matrix(1,0,0,1,39.6333,121.542)">
                    <path d="M0,-1.83C-0.3,-1.129 -0.511,-0.241 0.085,0.253L0.086,0.254L-0.163,0.397C-0.201,0.188 -0.212,-0.011 -0.169,-0.237C-0.128,-0.457 -0.001,-0.717 0.251,-0.885L0.376,-0.969C0.565,-1.095 0.821,-1.043 0.947,-0.853C1.073,-0.664 1.021,-0.409 0.833,-0.283C0.757,-0.232 0.671,-0.211 0.587,-0.215C0.513,-0.218 0.414,-0.169 0.332,-0.05C0.251,0.064 0.19,0.229 0.158,0.379L0.149,0.422C0.131,0.507 0.048,0.562 -0.038,0.544C-0.057,0.54 -0.075,0.532 -0.09,0.522L-0.092,0.521C-0.526,0.291 -0.783,-0.218 -0.828,-0.686C-0.885,-1.162 -0.817,-1.624 -0.712,-2.064C-0.665,-2.267 -0.462,-2.392 -0.26,-2.345C-0.058,-2.297 0.068,-2.094 0.02,-1.892C0.015,-1.871 0.008,-1.849 0,-1.83" style="fill:rgb(35,31,32);fill-rule:nonzero;"/>
                </g>
                <g transform="matrix(1,0,0,1,42.3218,122.931)">
                    <path d="M0,-0.965C-0.104,-0.567 -0.156,-0.145 -0.09,0.268L-0.089,0.27L-0.382,0.247C-0.307,0.056 -0.207,-0.096 -0.066,-0.24C0.073,-0.382 0.25,-0.499 0.446,-0.578L0.49,-0.597C0.69,-0.678 0.918,-0.582 1,-0.382C1.081,-0.182 0.985,0.046 0.785,0.127C0.726,0.151 0.663,0.16 0.604,0.155C0.488,0.144 0.364,0.155 0.242,0.198C0.121,0.236 -0.009,0.319 -0.1,0.401L-0.128,0.427C-0.198,0.489 -0.305,0.483 -0.367,0.414C-0.377,0.402 -0.386,0.389 -0.392,0.378L-0.393,0.376C-0.618,-0.056 -0.716,-0.544 -0.747,-1.029L-0.748,-1.036C-0.761,-1.246 -0.602,-1.427 -0.392,-1.441C-0.183,-1.454 -0.001,-1.295 0.012,-1.085C0.014,-1.044 0.01,-1.002 0,-0.965" style="fill:rgb(35,31,32);fill-rule:nonzero;"/>
                </g>
                <g transform="matrix(1,0,0,1,45.7163,122.782)">
                    <path d="M0,-0.804C-0.307,-0.391 -0.623,0.03 -0.727,0.492L-0.727,0.493L-0.98,0.355C-0.688,0.082 -0.406,-0.177 0.052,-0.343L0.08,-0.353C0.281,-0.426 0.502,-0.322 0.575,-0.12C0.648,0.081 0.544,0.302 0.343,0.376C0.288,0.395 0.23,0.401 0.175,0.397C-0.096,0.372 -0.474,0.486 -0.795,0.617L-0.816,0.627C-0.902,0.662 -1,0.62 -1.036,0.535C-1.043,0.516 -1.047,0.498 -1.048,0.479L-1.048,0.478C-1.074,-0.128 -0.847,-0.663 -0.653,-1.172C-0.579,-1.368 -0.359,-1.466 -0.164,-1.392C0.032,-1.317 0.13,-1.098 0.055,-0.902C0.043,-0.869 0.026,-0.839 0.006,-0.812L0,-0.804Z" style="fill:rgb(35,31,32);fill-rule:nonzero;"/>
                </g>
                <g transform="matrix(1,0,0,1,49.1992,120.79)">
                    <path d="M0,-2.728C-0.527,-2.39 -1.033,-2.02 -1.496,-1.615C-1.952,-1.214 -2.395,-0.754 -2.61,-0.282L-2.614,-0.274C-2.701,-0.083 -2.925,0 -3.115,-0.087C-3.305,-0.173 -3.388,-0.398 -3.301,-0.587C-3.29,-0.612 -3.275,-0.636 -3.26,-0.657C-2.814,-1.25 -2.264,-1.595 -1.713,-1.92C-1.159,-2.238 -0.584,-2.5 0,-2.728" style="fill:rgb(35,31,32);fill-rule:nonzero;"/>
                </g>
                <g transform="matrix(-0.0443428,0.999016,0.999016,0.0443428,51.5163,105.998)">
                    <path d="M10.631,-6.301C10.745,-5.943 10.608,-5.65 10.922,-4.213C11.197,-2.949 11.015,-2.302 10.631,-1.317C9.951,0.427 9.355,0.878 8.557,3.321C7.758,5.763 5.777,8.039 5.314,10.138" style="fill:none;fill-rule:nonzero;stroke:rgb(35,31,32);stroke-width:0.75px;"/>
                </g>
                <g transform="matrix(0.836494,-0.547976,-0.547976,-0.836494,99.5644,128.89)">
                    <path d="M-0.315,1.056C-0.315,1.056 1.793,2.07 3.539,1.056" style="fill:none;fill-rule:nonzero;stroke:rgb(35,31,32);stroke-width:0.75px;"/>
                </g>
                <g transform="matrix(1,0,0,1,98.7231,127.899)">
                    <path d="M0,1.762C-0.187,1.73 -0.406,1.716 -0.602,1.722C-0.793,1.729 -1.003,1.767 -1.083,1.846L-1.083,1.847L-1.112,1.874C-1.175,1.936 -1.275,1.935 -1.337,1.872C-1.38,1.828 -1.392,1.766 -1.374,1.711C-1.265,1.378 -1.125,1.071 -0.941,0.766C-0.754,0.467 -0.522,0.17 -0.17,-0.054L-0.16,-0.061C0.016,-0.174 0.25,-0.122 0.363,0.054C0.475,0.23 0.424,0.464 0.248,0.576C0.223,0.592 0.194,0.606 0.167,0.616C-0.307,0.779 -0.762,1.311 -1.078,1.835L-1.369,1.7L-1.368,1.698C-1.211,1.382 -0.94,1.299 -0.718,1.2C-0.481,1.113 -0.258,1.053 -0.002,1.012L0.005,1.011C0.213,0.978 0.408,1.119 0.441,1.327C0.474,1.535 0.333,1.73 0.125,1.763C0.083,1.77 0.04,1.769 0,1.762" style="fill:rgb(35,31,32);fill-rule:nonzero;"/>
                </g>
                <g transform="matrix(0.868087,-0.496411,-0.496411,-0.868087,49.2835,123.066)">
                    <path d="M-0.017,0.916C-0.017,0.916 1.658,-1.173 3.935,0.916" style="fill:none;fill-rule:nonzero;stroke:rgb(35,31,32);stroke-width:0.75px;"/>
                </g>
                <g transform="matrix(1,0,0,1,71.4019,44.9782)">
                    <path d="M0,19.678C-0.536,12.022 -2.795,-1.882 8.882,-3.369C20.903,-4.9 20.645,8.346 20.339,11.639C20.032,14.931 20.29,22.052 21.209,24.578" style="fill:none;fill-rule:nonzero;stroke:rgb(35,31,32);stroke-width:0.75px;"/>
                </g>
                <g transform="matrix(1,0,0,1,70.6201,64.2437)">
                    <path d="M0,9.518C0.388,8.85 0.485,8.066 0.588,7.315C0.673,6.553 0.694,5.787 0.699,5.022C0.69,3.491 0.572,1.961 0.407,0.439C0.384,0.233 0.532,0.047 0.738,0.024C0.944,0 1.13,0.148 1.153,0.354C1.154,0.364 1.155,0.376 1.156,0.386C1.196,1.936 1.19,3.49 1.074,5.037C1.005,5.81 0.922,6.581 0.773,7.343C0.608,8.094 0.444,8.88 0,9.518" style="fill:rgb(35,31,32);fill-rule:nonzero;"/>
                </g>
                <g transform="matrix(1,0,0,1,92.9634,78.5797)">
                    <path d="M0,-9.151C0.537,-7.584 1.42,-6.009 1.718,-4.26C1.868,-3.393 1.844,-2.465 1.499,-1.647C1.162,-0.825 0.532,-0.179 -0.167,0.319C0.496,-0.23 1.062,-0.911 1.323,-1.713C1.593,-2.511 1.551,-3.375 1.351,-4.185C0.946,-5.833 -0.001,-7.256 -0.705,-8.895C-0.787,-9.086 -0.699,-9.306 -0.508,-9.388C-0.317,-9.47 -0.097,-9.381 -0.015,-9.191C-0.011,-9.182 -0.008,-9.174 -0.005,-9.166L0,-9.151Z" style="fill:rgb(35,31,32);fill-rule:nonzero;"/>
                </g>
                <g transform="matrix(-0.225811,0.974171,0.974171,0.225811,92.9263,61.1299)">
                    <path d="M-9.497,-7.548C-4.457,-6.916 -0.801,-8.732 5.998,-7.548" style="fill:none;fill-rule:nonzero;stroke:rgb(35,31,32);stroke-width:0.75px;"/>
                </g>
                <g transform="matrix(1,0,0,1,84.5938,77.566)">
                    <path d="M0,-12.276C-0.183,-9.943 -0.301,-7.598 -0.137,-5.267C-0.042,-4.107 0.112,-2.938 0.514,-1.846C0.727,-1.31 0.98,-0.777 1.382,-0.355C1.784,0.062 2.321,0.34 2.91,0.413C2.32,0.372 1.754,0.12 1.316,-0.289C0.878,-0.703 0.588,-1.237 0.339,-1.777C-0.132,-2.875 -0.351,-4.056 -0.51,-5.228C-0.802,-7.584 -0.808,-9.957 -0.749,-12.318C-0.743,-12.525 -0.571,-12.689 -0.364,-12.683C-0.157,-12.678 0.007,-12.506 0.001,-12.299C0.001,-12.293 0,-12.283 0,-12.276" style="fill:rgb(35,31,32);fill-rule:nonzero;"/>
                </g>
                <g transform="matrix(1,0,0,1,85.8184,50.5791)">
                    <path d="M0,-7.208C0.553,-6.922 1.101,-6.551 1.453,-5.998C1.812,-5.456 2.01,-4.823 2.125,-4.192C2.348,-2.923 2.336,-1.636 2.273,-0.367C2.263,-0.16 2.086,0 1.879,-0.011C1.672,-0.021 1.513,-0.197 1.523,-0.404C1.523,-0.417 1.525,-0.433 1.527,-0.444C1.712,-1.672 1.845,-2.913 1.754,-4.141C1.704,-4.752 1.578,-5.36 1.292,-5.901C1.016,-6.451 0.525,-6.867 0,-7.208" style="fill:rgb(35,31,32);fill-rule:nonzero;"/>
                </g>
                <g transform="matrix(1,0,0,1,80.9727,75.7468)">
                    <path d="M0,-11.78C-0.184,-12.883 -1.193,-13.616 -2.172,-13.88C-3.186,-14.16 -4.26,-13.868 -5.065,-13.232C-5.856,-12.57 -6.549,-11.731 -6.768,-10.75C-7.004,-9.768 -6.826,-8.713 -6.45,-7.739C-5.717,-5.756 -4.326,-4.023 -2.856,-2.449C-2.102,-1.654 -1.341,-0.851 -0.629,-0.007C-0.28,0.422 0.058,0.862 0.365,1.324C0.651,1.786 0.989,2.28 0.995,2.845C0.908,2.297 0.525,1.87 0.205,1.442C-0.141,1.022 -0.516,0.625 -0.902,0.24C-1.662,-0.547 -2.457,-1.293 -3.264,-2.041C-4.86,-3.579 -6.295,-5.346 -7.151,-7.477C-7.539,-8.546 -7.732,-9.757 -7.428,-10.916C-7.125,-12.082 -6.341,-13.037 -5.402,-13.698C-4.45,-14.364 -3.167,-14.625 -2.064,-14.229C-1.522,-14.025 -1.035,-13.702 -0.652,-13.285C-0.273,-12.874 0.019,-12.339 0,-11.78" style="fill:rgb(35,31,32);fill-rule:nonzero;"/>
                </g>
                <g transform="matrix(1,0,0,1,70.8804,110.117)">
                    <path d="M0,-53.372C0,-53.372 -7.519,-50.105 -10.887,-48.013C-14.256,-45.92 -25.18,-38.569 -30.795,-31.78C-36.41,-24.992 -41.463,-17.539 -43.045,-15.906C-44.628,-14.272 -48.048,-9.78 -49.171,-6.36C-49.171,-6.36 -51.417,-2.43 -46.619,-0.541C-45.295,-0.02 -44.313,0 -43.601,-0.267" style="fill:none;fill-rule:nonzero;stroke:rgb(35,31,32);stroke-width:0.75px;"/>
                </g>
                <g transform="matrix(1,0,0,1,27.1489,106.54)">
                    <path d="M0,2.96C0.657,2.784 1.198,2.222 1.462,1.501C1.6,1.145 1.677,0.757 1.697,0.365C1.714,-0.025 1.685,-0.432 1.502,-0.792C1.74,-0.463 1.839,-0.046 1.884,0.359C1.927,0.77 1.911,1.19 1.823,1.605C1.665,2.426 1.134,3.272 0.262,3.662L0.251,3.667C0.061,3.752 -0.162,3.667 -0.247,3.478C-0.332,3.288 -0.247,3.064 -0.057,2.98C-0.039,2.972 -0.019,2.965 0,2.96" style="fill:rgb(35,31,32);fill-rule:nonzero;"/>
                </g>
                <g transform="matrix(1,0,0,1,27.2793,114.221)">
                    <path d="M0,-4.371C0,-4.371 2.393,0 7.804,-0.101C12.27,-0.185 15.108,-0.987 17.823,-1.505" style="fill:none;fill-rule:nonzero;stroke:rgb(35,31,32);stroke-width:0.75px;"/>
                </g>
                <g transform="matrix(1,0,0,1,45.0322,113.166)">
                    <path d="M0,-0.818L1.791,-0.731L0.141,-0.082L0.123,-0.075C-0.076,0.003 -0.299,-0.093 -0.377,-0.292C-0.455,-0.49 -0.358,-0.714 -0.16,-0.792C-0.108,-0.812 -0.052,-0.821 0,-0.818" style="fill:rgb(35,31,32);fill-rule:nonzero;"/>
                </g>
                <g transform="matrix(0.00296633,0.999996,0.999996,-0.00296633,62.3776,92.0034)">
                    <path d="M20.661,-17.336C20.872,-18.405 22.405,-17.762 22.071,-15.62C21.738,-13.491 20.953,-13.268 20.661,-8.571C20.369,-3.875 19.213,2.408 18.357,6.239C17.5,10.069 15.888,17.13 15.646,21.796" style="fill:none;fill-rule:nonzero;stroke:rgb(35,31,32);stroke-width:0.75px;"/>
                </g>
                <g transform="matrix(1,0,0,1,84.1992,92.3719)">
                    <path d="M0,14.839C2.252,14.743 4.504,14.475 6.691,13.929C8.87,13.381 11.007,12.561 12.844,11.263C14.681,9.981 16.149,8.135 16.819,5.969C17.497,3.805 17.443,1.469 17.037,-0.764C17.503,1.456 17.627,3.801 16.998,6.024C16.379,8.247 14.919,10.195 13.065,11.566C11.212,12.953 9.044,13.852 6.834,14.473C4.617,15.091 2.332,15.427 0.041,15.588C-0.166,15.603 -0.345,15.446 -0.359,15.239C-0.374,15.033 -0.218,14.854 -0.012,14.839L0,14.839Z" style="fill:rgb(35,31,32);fill-rule:nonzero;"/>
                </g>
                <g transform="matrix(1,0,0,1,91.4946,47.8269)">
                    <path d="M0,2.596C-0.024,2.481 14.571,0 39.316,1.363C57.177,2.347 61.793,2.596 68.391,1.813" style="fill:none;fill-rule:nonzero;stroke:rgb(35,31,32);stroke-width:0.75px;"/>
                </g>
                <g transform="matrix(1,0,0,1,155.635,44.6023)">
                    <path d="M0,5.717C0.202,5.724 -0.816,5.418 7.249,4.398C15.314,3.377 29.563,-0.007 47.021,1.575" style="fill:none;fill-rule:nonzero;stroke:rgb(35,31,32);stroke-width:0.75px;"/>
                </g>
                <g transform="matrix(0.917389,0.397991,0.397991,-0.917389,64.0059,52.4248)">
                    <path d="M5.924,-3.529C5.924,-3.529 5.019,0.666 3.945,4.166C2.872,7.665 -1.565,17.368 5.924,22.177C13.41,26.983 17.197,25.564 19.439,21.808C21.219,18.824 20.976,17.44 21.59,16.025" style="fill:none;fill-rule:nonzero;stroke:rgb(35,31,32);stroke-width:0.75px;"/>
                </g>
                <g transform="matrix(1,0,0,1,44.5967,80.8323)">
                    <path d="M0,8.989C0.559,8.393 0.952,7.678 1.237,6.934C1.56,6.202 1.682,5.419 1.945,4.609C2.464,3.041 3.469,1.471 5.093,0.702C6.708,0 8.6,0.056 10.106,0.93C10.855,1.351 11.47,1.999 11.946,2.651C12.19,2.978 12.423,3.309 12.696,3.597C12.967,3.878 13.292,4.15 13.712,4.153C13.295,4.238 12.877,4.005 12.562,3.745C12.234,3.482 11.953,3.179 11.666,2.889C11.123,2.276 10.544,1.766 9.836,1.44C8.464,0.775 6.765,0.774 5.41,1.382C4.034,2.009 3.099,3.37 2.483,4.811C2.177,5.526 1.975,6.356 1.568,7.089C1.16,7.809 0.677,8.515 0,8.989" style="fill:rgb(35,31,32);fill-rule:nonzero;"/>
                </g>
                <g transform="matrix(1,0,0,1,45.3306,87.0563)">
                    <path d="M0,2.765C0.171,2.489 0.471,2.266 0.828,2.221C1.184,2.168 1.546,2.299 1.841,2.449C2.426,2.764 2.969,3.086 3.556,3.29C4.723,3.716 5.954,3.664 7.11,3.192C8.293,2.769 9.415,2.178 10.14,1.197C10.524,0.728 10.72,0.093 11.162,-0.457C11.605,-0.981 12.193,-1.363 12.825,-1.534C12.26,-1.207 11.764,-0.786 11.459,-0.245C11.132,0.261 10.993,0.922 10.618,1.516C9.899,2.739 8.598,3.443 7.368,3.896C6.742,4.12 6.044,4.299 5.346,4.287C4.648,4.275 3.949,4.121 3.335,3.82C2.719,3.528 2.175,3.126 1.656,2.763C1.401,2.576 1.143,2.428 0.84,2.417C0.544,2.409 0.234,2.538 0,2.765" style="fill:rgb(35,31,32);fill-rule:nonzero;"/>
                </g>
                <g transform="matrix(1,0,0,1,46.0322,87.1288)">
                    <path d="M0,1.753C0.541,1.467 1.207,1.682 1.731,1.907C2.269,2.155 2.763,2.435 3.273,2.626C4.286,3.04 5.344,2.882 6.354,2.432C7.371,1.996 8.334,1.444 8.966,0.566C9.291,0.131 9.559,-0.393 9.957,-0.856C10.36,-1.31 10.869,-1.653 11.42,-1.838C10.947,-1.5 10.524,-1.119 10.255,-0.635C9.962,-0.173 9.774,0.371 9.456,0.893C9.154,1.424 8.701,1.875 8.219,2.245C7.722,2.605 7.191,2.881 6.643,3.122C6.086,3.343 5.494,3.538 4.858,3.561C4.227,3.591 3.582,3.438 3.042,3.162C2.492,2.899 2.023,2.54 1.555,2.232C1.097,1.913 0.585,1.645 0,1.753" style="fill:rgb(35,31,32);fill-rule:nonzero;"/>
                </g>
                <g transform="matrix(1,0,0,1,55.5137,89.1268)">
                    <path d="M0,-5.745C-0.939,-6.727 -1.997,-7.396 -4.527,-7.035C-7.427,-6.621 -8.168,-3.491 -8.551,-2.227C-8.934,-0.965 -6.976,1.651 -3.817,0.834C-0.659,0.017 0.405,-2.652 0.635,-3.512C0.865,-4.372 0.406,-5.32 0,-5.745" style="fill:rgb(35,31,32);fill-rule:nonzero;"/>
                </g>
                <g transform="matrix(0.186745,0.982408,0.982408,-0.186745,49.2883,84.3563)">
                    <path d="M1.231,-1.019C1.922,-1.023 2.481,-0.465 2.482,0.227C2.482,0.919 1.922,1.483 1.231,1.487C0.541,1.49 -0.019,0.933 -0.019,0.241C-0.019,-0.452 0.541,-1.015 1.231,-1.019" style="fill:white;fill-rule:nonzero;"/>
                </g>
                <g transform="matrix(1,0,0,1,109.683,127.212)">
                    <path d="M0,-23.109C0.539,-22.711 1.142,-22.326 1.814,-21.974C6.204,-19.677 6.552,-19.492 6.348,-15.868C6.144,-12.244 4.984,-9.367 4.123,-6.699C3.179,-3.774 1.61,-2.45 0.729,-1.363C-0.151,-0.276 -1.261,0 -2.295,-0.382C-3.329,-0.765 -4.108,-1.177 -4.108,-1.177" style="fill:none;fill-rule:nonzero;stroke:rgb(35,31,32);stroke-width:0.75px;"/>
                </g>
                <g transform="matrix(1,0,0,1,105.678,104.545)">
                    <path d="M0,-5.28C0.479,-4.335 1.129,-3.493 1.841,-2.731C2.561,-1.973 3.366,-1.308 4.228,-0.744C4.402,-0.631 4.452,-0.398 4.339,-0.224C4.226,-0.05 3.994,0 3.819,-0.113C3.807,-0.121 3.792,-0.132 3.782,-0.14C2.948,-0.841 2.197,-1.63 1.554,-2.49C0.918,-3.355 0.366,-4.283 0,-5.28" style="fill:rgb(35,31,32);fill-rule:nonzero;"/>
                </g>
                <g transform="matrix(-0.987415,0.158148,0.158148,0.987415,221.405,126.267)">
                    <path d="M-15.742,-18.703C-14.843,-17.365 -14.232,-15.635 -14.599,-13.687C-15.241,-10.276 -16.755,-8.431 -15.742,-5.336C-14.73,-2.241 -8.928,-2.737 -7.061,-2.105C-5.194,-1.474 -1.867,-0.715 4.024,-2.02" style="fill:none;fill-rule:nonzero;stroke:rgb(35,31,32);stroke-width:0.75px;"/>
                </g>
                <g transform="matrix(1,0,0,1,235.825,105.773)">
                    <path d="M0,-3.063C-0.677,-2.231 -1.174,-1.282 -1.493,-0.306C-1.558,-0.108 -1.771,0 -1.969,-0.064C-2.167,-0.128 -2.275,-0.342 -2.211,-0.541C-2.202,-0.568 -2.188,-0.596 -2.174,-0.621C-1.589,-1.575 -0.854,-2.409 0,-3.063" style="fill:rgb(35,31,32);fill-rule:nonzero;"/>
                </g>
                <g transform="matrix(1,0,0,1,203.58,128.933)">
                    <path d="M0,-7.318C-0.248,-6.86 -0.432,-6.388 -0.43,-5.905C-0.456,-5.412 -0.267,-4.953 -0.223,-4.242C-0.235,-3.817 -0.33,-3.615 -0.352,-3.342C-0.386,-3.079 -0.417,-2.81 -0.428,-2.543C-0.441,-2.275 -0.439,-2.008 -0.414,-1.756C-0.395,-1.507 -0.325,-1.248 -0.256,-1.15L-0.24,-1.127C-0.219,-1.097 -0.202,-1.063 -0.191,-1.03C-0.128,-0.841 -0.036,-0.629 0.064,-0.443C0.178,-0.259 0.267,-0.078 0.342,0.13L-0.11,0.288C0.003,0.039 0.108,-0.17 0.145,-0.421C0.191,-0.663 0.184,-0.966 0.424,-1.232C0.478,-1.292 0.551,-1.321 0.625,-1.32L0.714,-1.319C1.027,-1.316 1.413,-1.378 1.668,-1.549C1.94,-1.713 2.106,-1.978 2.211,-2.295C2.306,-2.608 2.337,-3.027 2.354,-3.422C2.383,-3.821 2.381,-4.235 2.388,-4.635L2.388,-4.643C2.392,-4.851 2.563,-5.016 2.77,-5.012C2.961,-5.009 3.117,-4.863 3.137,-4.677C3.183,-4.246 3.19,-3.825 3.19,-3.391C3.17,-2.956 3.157,-2.533 3.019,-2.044C2.883,-1.566 2.531,-1.103 2.073,-0.855C1.606,-0.607 1.129,-0.526 0.615,-0.597L0.905,-0.683C0.8,-0.631 0.586,-0.499 0.479,-0.304C0.363,-0.115 0.367,0.135 0.418,0.347C0.446,0.46 0.377,0.574 0.264,0.601C0.213,0.614 0.163,0.606 0.12,0.584L-0.034,0.506C-0.293,0.374 -0.476,0.16 -0.596,-0.072C-0.727,-0.302 -0.833,-0.523 -0.93,-0.784L-0.865,-0.664C-1.128,-1.033 -1.164,-1.351 -1.214,-1.66C-1.254,-1.969 -1.264,-2.269 -1.26,-2.568C-1.254,-2.866 -1.238,-3.163 -1.197,-3.459C-1.165,-3.751 -1.063,-4.092 -1.072,-4.236C-1.077,-4.656 -1.309,-5.289 -1.261,-5.937C-1.232,-6.592 -0.972,-7.207 -0.638,-7.712C-0.524,-7.884 -0.292,-7.932 -0.119,-7.818C0.044,-7.711 0.096,-7.497 0.005,-7.328L0,-7.318Z" style="fill:rgb(35,31,32);fill-rule:nonzero;"/>
                </g>
                <g transform="matrix(1,0,0,1,206.016,123.221)">
                    <path d="M0,0.871C0.2,0.64 0.398,0.39 0.583,0.137C0.76,-0.12 0.955,-0.373 1.041,-0.68C1.079,-0.354 0.993,-0.025 0.924,0.292C0.847,0.612 0.758,0.923 0.652,1.241C0.587,1.441 0.371,1.551 0.17,1.485C-0.031,1.42 -0.141,1.204 -0.075,1.003C-0.059,0.954 -0.031,0.908 0,0.871" style="fill:rgb(35,31,32);fill-rule:nonzero;"/>
                </g>
                <g transform="matrix(1,0,0,1,206.801,121.826)">
                    <path d="M0,-2.092C-0.678,-2.021 -1.338,-1.821 -1.915,-1.513C-2.493,-1.202 -2.958,-0.746 -3.222,-0.211C-3.314,-0.025 -3.54,0.053 -3.726,-0.039C-3.913,-0.131 -3.99,-0.357 -3.898,-0.543C-3.888,-0.565 -3.873,-0.587 -3.86,-0.605C-3.395,-1.228 -2.739,-1.642 -2.063,-1.858C-1.383,-2.073 -0.682,-2.145 0,-2.092" style="fill:rgb(35,31,32);fill-rule:nonzero;"/>
                </g>
                <g transform="matrix(0.999486,-0.0320535,-0.0320535,-0.999486,206.356,124.536)">
                    <path d="M-0.004,0.044C-0.004,0.044 1.019,0.292 2.742,0.044" style="fill:none;fill-rule:nonzero;stroke:rgb(35,31,32);stroke-width:0.75px;"/>
                </g>
                <g transform="matrix(1,0,0,1,209.136,124.781)">
                    <path d="M0,-0.75L2.106,-0.285L-0.083,-0.005C-0.293,0.022 -0.486,-0.127 -0.513,-0.337C-0.54,-0.548 -0.391,-0.74 -0.181,-0.767C-0.136,-0.772 -0.092,-0.771 -0.05,-0.762L0,-0.75Z" style="fill:rgb(35,31,32);fill-rule:nonzero;"/>
                </g>
                <g transform="matrix(0.998182,0.0602754,0.0602754,-0.998182,209.14,124.127)">
                    <path d="M-0.028,-0.278C3.03,-1.316 6.312,-1.063 9.179,-0.278" style="fill:none;fill-rule:nonzero;stroke:rgb(35,31,32);stroke-width:0.75px;"/>
                </g>
                <g transform="matrix(0.424204,0.905567,0.905567,-0.424204,193.162,104.842)">
                    <path d="M12.591,-14.484C12.591,-14.484 10.198,-13.483 10.746,-10.145C11.294,-6.81 10.568,-7.068 12.591,-3.112C14.614,0.845 16.154,5.661 18.375,9.821C20.04,12.941 22.231,17.147 23.05,19.796" style="fill:none;fill-rule:nonzero;stroke:rgb(35,31,32);stroke-width:0.75px;"/>
                </g>
                <g transform="matrix(1,0,0,1,220.814,117.532)">
                    <path d="M0,-0.586C0.341,-0.571 0.682,-0.565 1.021,-0.589C1.358,-0.616 1.701,-0.653 2.015,-0.81C1.773,-0.55 1.44,-0.377 1.115,-0.226C0.786,-0.076 0.446,0.046 0.103,0.157C-0.097,0.224 -0.312,0.115 -0.378,-0.085C-0.444,-0.285 -0.336,-0.501 -0.136,-0.566C-0.092,-0.581 -0.044,-0.587 0,-0.586" style="fill:rgb(35,31,32);fill-rule:nonzero;"/>
                </g>
                <g transform="matrix(1,0,0,1,203.26,123.282)">
                    <path d="M0,-1.864C-2.877,-0.766 -5.201,-2.119 -7.995,-2.31C-10.79,-2.502 -12.13,-2.138 -13.738,-0.76C-15.346,0.618 -17.681,0.638 -17.681,0.638" style="fill:none;fill-rule:nonzero;stroke:rgb(35,31,32);stroke-width:0.75px;"/>
                </g>
                <g transform="matrix(-0.127206,0.991876,0.991876,0.127206,225.123,114.187)">
                    <path d="M-1.867,-3.824C-0.392,-2.37 1.811,-1.135 3.644,-3.824" style="fill:none;fill-rule:nonzero;stroke:rgb(35,31,32);stroke-width:0.75px;"/>
                </g>
                <g transform="matrix(1,0,0,1,219.783,112.307)">
                    <path d="M0,-2.686C0.376,-2.383 0.709,-2.035 1.058,-1.703L2.083,-0.684C2.231,-0.538 2.232,-0.297 2.085,-0.149C1.938,0 1.698,0 1.55,-0.147C1.526,-0.17 1.506,-0.197 1.49,-0.223L1.487,-0.23L0.763,-1.471C0.514,-1.878 0.282,-2.302 0,-2.686" style="fill:rgb(35,31,32);fill-rule:nonzero;"/>
                </g>
                <g transform="matrix(1,0,0,1,194.423,122.924)">
                    <path d="M0,0.383C0,0.383 2.725,0.766 4.233,0.192C5.743,-0.383 6.471,0.536 8.308,0.192" style="fill:none;fill-rule:nonzero;stroke:rgb(35,31,32);stroke-width:0.75px;"/>
                </g>
                <g transform="matrix(-0.854007,0.520261,0.520261,0.854007,194.388,123.157)">
                    <path d="M-2.714,-0.761C-2.714,-0.761 -1.558,-1.386 0.214,-0.761" style="fill:none;fill-rule:nonzero;stroke:rgb(35,31,32);stroke-width:0.75px;"/>
                </g>
                <g transform="matrix(0.999644,0.026682,0.026682,-0.999644,181.537,119.912)">
                    <path d="M-0.012,-0.065C-0.012,-0.065 2.867,-0.972 4.822,-0.065" style="fill:none;fill-rule:nonzero;stroke:rgb(35,31,32);stroke-width:0.75px;"/>
                </g>
                <g transform="matrix(1,0,0,1,203.376,117.527)">
                    <path d="M0,-0.154C-1.261,-0.095 -6.465,-0.575 -8.456,-0.652C-8.456,-0.652 -13.66,-1.8 -17.335,-1.111C-21.01,-0.422 -21.546,0.496 -22.351,1.646" style="fill:none;fill-rule:nonzero;stroke:rgb(35,31,32);stroke-width:0.75px;"/>
                </g>
                <g transform="matrix(0.884069,0.467356,0.467356,-0.884069,181.453,116.746)">
                    <path d="M-0.097,-0.327C-0.097,-0.327 0.706,-0.714 1.286,-0.327" style="fill:none;fill-rule:nonzero;stroke:rgb(35,31,32);stroke-width:0.75px;"/>
                </g>
                <g transform="matrix(-0.999974,-0.00716082,-0.00716082,0.999974,181.793,115.217)">
                    <path d="M-8.662,0.979C-8.662,0.979 -3.825,0.004 -0.003,0.979" style="fill:none;fill-rule:nonzero;stroke:rgb(35,31,32);stroke-width:0.75px;"/>
                </g>
                <g transform="matrix(1,0,0,1,185.578,122.317)">
                    <path d="M0,1.978C-0.194,1.947 -0.441,1.949 -0.65,1.986C-0.865,2.025 -1.062,2.105 -1.2,2.256L-1.201,2.258C-1.252,2.332 -1.354,2.349 -1.427,2.297C-1.483,2.258 -1.506,2.187 -1.491,2.124C-1.389,1.722 -1.269,1.332 -1.114,0.94C-0.95,0.55 -0.8,0.161 -0.427,-0.219C-0.281,-0.369 -0.042,-0.371 0.107,-0.225C0.256,-0.079 0.258,0.16 0.112,0.309C0.093,0.328 0.068,0.348 0.046,0.363C-0.19,0.517 -0.436,0.855 -0.635,1.178C-0.839,1.51 -1.024,1.868 -1.187,2.226L-1.477,2.093L-1.475,2.09C-1.344,1.809 -1.088,1.609 -0.831,1.482C-0.564,1.352 -0.308,1.272 0.002,1.228C0.209,1.197 0.403,1.338 0.434,1.546C0.466,1.753 0.323,1.947 0.116,1.978C0.078,1.984 0.036,1.983 0,1.978" style="fill:rgb(35,31,32);fill-rule:nonzero;"/>
                </g>
                <g transform="matrix(1,0,0,1,193.987,122.882)">
                    <path d="M0,0.067C-0.135,0.103 -0.314,0.196 -0.454,0.295C-0.6,0.397 -0.729,0.523 -0.831,0.674L-0.832,0.675L-1.021,0.461C-0.557,0.275 -0.088,0.127 0.436,0.049C0.643,0.017 0.837,0.158 0.871,0.365C0.903,0.573 0.762,0.767 0.555,0.799C0.517,0.806 0.473,0.805 0.436,0.799C0.004,0.731 -0.477,0.732 -0.939,0.772L-0.963,0.774C-1.053,0.781 -1.131,0.715 -1.139,0.626C-1.141,0.602 -1.137,0.578 -1.129,0.556L-1.129,0.554C-1.076,0.333 -0.976,0.118 -0.844,-0.073C-0.707,-0.267 -0.568,-0.43 -0.353,-0.595L-0.334,-0.61C-0.166,-0.739 0.076,-0.707 0.205,-0.538C0.334,-0.37 0.302,-0.129 0.134,0.001C0.093,0.032 0.046,0.054 0,0.067" style="fill:rgb(35,31,32);fill-rule:nonzero;"/>
                </g>
                <g transform="matrix(1,0,0,1,181.318,120.073)">
                    <path d="M0,-0.667C-0.173,-0.501 -0.353,-0.291 -0.508,-0.083C-0.667,0.127 -0.808,0.351 -0.929,0.586L-1.197,0.424C-1.031,0.208 -0.851,0.023 -0.625,-0.144C-0.401,-0.306 -0.125,-0.45 0.227,-0.472L0.281,-0.475C0.494,-0.487 0.677,-0.325 0.689,-0.112C0.702,0.101 0.54,0.283 0.327,0.296C0.277,0.3 0.228,0.292 0.183,0.277C-0.112,0.18 -0.605,0.382 -0.964,0.645L-0.972,0.65C-1.046,0.705 -1.15,0.688 -1.204,0.615C-1.233,0.575 -1.242,0.526 -1.232,0.482C-1.172,0.2 -1.085,-0.076 -0.976,-0.344C-0.865,-0.615 -0.747,-0.867 -0.585,-1.135C-0.478,-1.314 -0.245,-1.372 -0.066,-1.264C0.113,-1.156 0.17,-0.924 0.062,-0.745C0.045,-0.716 0.023,-0.688 0,-0.667" style="fill:rgb(35,31,32);fill-rule:nonzero;"/>
                </g>
                <g transform="matrix(1,0,0,1,181.806,116.696)">
                    <path d="M0,-0.126C-0.261,-0.143 -0.58,-0.114 -0.866,-0.054C-1.159,0.005 -1.444,0.105 -1.711,0.248L-1.713,0.249L-1.809,-0.042C-1.593,-0.079 -1.382,-0.105 -1.159,-0.117C-0.934,-0.123 -0.713,-0.135 -0.423,-0.041L-0.37,-0.024C-0.165,0.042 -0.052,0.262 -0.119,0.467C-0.185,0.672 -0.404,0.784 -0.609,0.719C-0.667,0.7 -0.718,0.668 -0.759,0.63C-0.844,0.548 -1.037,0.47 -1.219,0.415C-1.406,0.358 -1.607,0.313 -1.803,0.279L-1.825,0.275C-1.914,0.26 -1.973,0.175 -1.958,0.087C-1.951,0.046 -1.929,0.012 -1.899,-0.012L-1.897,-0.014C-1.642,-0.236 -1.349,-0.421 -1.037,-0.562C-0.719,-0.704 -0.409,-0.812 -0.034,-0.875C0.171,-0.91 0.367,-0.772 0.402,-0.566C0.437,-0.36 0.299,-0.165 0.093,-0.13C0.064,-0.125 0.036,-0.124 0.008,-0.125L0,-0.126Z" style="fill:rgb(35,31,32);fill-rule:nonzero;"/>
                </g>
                <g transform="matrix(1,0,0,1,132.378,111.353)">
                    <path d="M0,-3.017C0.35,-3.288 5.254,-4.664 11.839,-3.017C18.424,-1.369 22.622,1.647 38.074,1.647C58.9,1.647 62.042,1.595 73.454,-0.496C74.839,-0.75 79.079,-2.265 82.103,-2.112C85.127,-1.958 88.289,-0.986 89.182,0.503" style="fill:none;fill-rule:nonzero;stroke:rgb(35,31,32);stroke-width:0.75px;"/>
                </g>
                <g transform="matrix(1,0,0,1,203.688,107.54)">
                    <path d="M0,-27.034C-1.307,-26.125 -2.449,-25.003 -3.395,-23.747C-4.354,-22.503 -5.106,-21.101 -5.565,-19.613C-6.019,-18.123 -6.229,-16.571 -6.198,-15.016C-6.134,-14.242 -6.105,-13.457 -5.936,-12.716C-5.743,-11.976 -5.498,-11.248 -5.137,-10.569C-3.74,-7.804 -1.219,-5.733 1.425,-4.062C2.756,-3.218 4.157,-2.473 5.596,-1.809C7.026,-1.124 8.501,-0.53 10.003,0C6.909,-0.769 3.915,-1.972 1.126,-3.569C-0.272,-4.361 -1.586,-5.311 -2.786,-6.403C-3.983,-7.491 -5.047,-8.765 -5.805,-10.231C-6.182,-10.966 -6.438,-11.758 -6.634,-12.559C-6.807,-13.378 -6.825,-14.188 -6.879,-15.001C-6.879,-16.626 -6.672,-18.266 -6.108,-19.798C-5.013,-22.87 -2.763,-25.453 0,-27.034" style="fill:rgb(35,31,32);fill-rule:nonzero;"/>
                </g>
                <g transform="matrix(0.99992,0.01266,0.01266,-0.99992,102.248,105.062)">
                    <path d="M0.01,-0.058C2.387,-0.218 6.053,1.705 9.252,-0.058" style="fill:none;fill-rule:nonzero;stroke:rgb(35,31,32);stroke-width:0.75px;"/>
                </g>
                <g transform="matrix(1,0,0,1,258.426,94.6164)">
                    <path d="M0,-16.26C0,-16.26 3.046,-13.932 4.22,-12.094C5.394,-10.257 5.649,-7.5 5.598,-3.672C5.579,-2.221 5.472,-1.012 5.34,0" style="fill:none;fill-rule:nonzero;stroke:rgb(35,31,32);stroke-width:0.75px;"/>
                </g>
                <g transform="matrix(1,0,0,1,264.138,97.723)">
                    <path d="M0,-3.058C-0.266,-1.858 -0.672,-0.71 -0.931,0.47C-0.938,-0.138 -0.875,-0.747 -0.835,-1.351C-0.792,-1.954 -0.759,-2.555 -0.744,-3.155C-0.738,-3.363 -0.565,-3.528 -0.357,-3.522C-0.149,-3.517 0.015,-3.344 0.01,-3.136C0.009,-3.112 0.007,-3.088 0.002,-3.066L0,-3.058Z" style="fill:rgb(35,31,32);fill-rule:nonzero;"/>
                </g>
                <g transform="matrix(1,0,0,1,253.232,98.193)">
                    <path d="M0,-13.067C0,-13.067 1.808,-11.332 2.879,-9.699C3.952,-8.065 5.465,-5.257 5.193,-2.348C5.104,-1.391 4.939,-0.616 4.756,0" style="fill:none;fill-rule:nonzero;stroke:rgb(35,31,32);stroke-width:0.75px;"/>
                </g>
                <g transform="matrix(1,0,0,1,258.348,100.159)">
                    <path d="M0,-1.859L-1.215,0.581L-0.719,-2.072L-0.714,-2.098C-0.676,-2.304 -0.477,-2.44 -0.271,-2.402C-0.064,-2.364 0.072,-2.165 0.033,-1.959C0.027,-1.923 0.015,-1.889 0,-1.859" style="fill:rgb(35,31,32);fill-rule:nonzero;"/>
                </g>
                <g transform="matrix(1,0,0,1,254.474,104.75)">
                    <path d="M0,3.654C0,3.654 2.094,4.611 3.111,2.039C3.802,0.291 4.355,-0.307 4.657,-0.957" style="fill:none;fill-rule:nonzero;stroke:rgb(35,31,32);stroke-width:0.75px;"/>
                </g>
                <g transform="matrix(1,0,0,1,248.73,106.883)">
                    <path d="M0,-3.565C0,-3.565 2.213,-3.206 3.29,-3.804C3.29,-3.804 6.093,-3.146 7.115,-3.684C8.136,-4.222 5.923,-0.567 5.624,0.657" style="fill:none;fill-rule:nonzero;stroke:rgb(35,31,32);stroke-width:0.75px;"/>
                </g>
                <g transform="matrix(1,0,0,1,257.987,103.558)">
                    <path d="M0,-5.365C0,-5.365 -0.223,-3.59 -2.437,-3.649C-4.65,-3.71 -8.824,-4.09 -9.809,-2.115C-9.809,-2.115 -10.692,-1.257 -10.333,0" style="fill:none;fill-rule:nonzero;stroke:rgb(35,31,32);stroke-width:0.75px;"/>
                </g>
                <g transform="matrix(1,0,0,1,254.494,108.074)">
                    <path d="M0,-0.186C-0.211,-0.136 -0.441,-0.061 -0.646,0.025C-0.845,0.106 -1.062,0.243 -1.101,0.335L-1.101,0.336L-1.283,0.171C-1.073,0.109 -0.867,0.055 -0.648,0.012C-0.422,-0.023 -0.223,-0.079 0.098,-0.025L0.172,-0.013C0.388,0.023 0.534,0.226 0.498,0.442C0.462,0.658 0.259,0.803 0.043,0.767C-0.025,0.756 -0.088,0.727 -0.139,0.686C-0.219,0.622 -0.444,0.576 -0.631,0.547C-0.829,0.518 -1.037,0.5 -1.24,0.49L-1.282,0.488C-1.364,0.483 -1.427,0.414 -1.423,0.332L-1.422,0.325L-1.422,0.321C-1.42,0.113 -1.315,-0.023 -1.229,-0.136C-1.136,-0.247 -1.036,-0.339 -0.934,-0.427C-0.725,-0.599 -0.518,-0.744 -0.28,-0.882C-0.1,-0.989 0.133,-0.929 0.24,-0.749C0.346,-0.569 0.287,-0.336 0.106,-0.229C0.074,-0.209 0.035,-0.195 0,-0.186" style="fill:rgb(35,31,32);fill-rule:nonzero;"/>
                </g>
                <g transform="matrix(1,0,0,1,247.998,104.004)">
                    <path d="M0,-0.594C0.02,-0.467 0.091,-0.284 0.162,-0.131C0.237,0.028 0.325,0.184 0.426,0.337L0.427,0.338L0.153,0.439C0.148,-0.005 0.124,-0.449 0.467,-0.95L0.493,-0.989C0.616,-1.167 0.859,-1.212 1.038,-1.09C1.216,-0.968 1.261,-0.724 1.139,-0.546C1.102,-0.491 1.052,-0.448 0.998,-0.42C0.779,-0.306 0.577,0.105 0.474,0.464L0.472,0.47C0.444,0.563 0.347,0.618 0.253,0.591C0.233,0.585 0.215,0.576 0.2,0.565L0.198,0.564C0.037,0.452 -0.119,0.328 -0.268,0.189C-0.417,0.043 -0.551,-0.088 -0.689,-0.298L-0.705,-0.323C-0.822,-0.501 -0.772,-0.74 -0.594,-0.858C-0.416,-0.975 -0.176,-0.925 -0.059,-0.746C-0.028,-0.699 -0.008,-0.646 0,-0.594" style="fill:rgb(35,31,32);fill-rule:nonzero;"/>
                </g>
                <g transform="matrix(1,0,0,1,258.791,103.438)">
                    <path d="M0,0.197C0.252,-0.039 0.45,-0.356 0.588,-0.728C0.701,-0.355 0.75,0.075 0.68,0.513L0.673,0.555C0.638,0.775 0.431,0.925 0.211,0.889C-0.008,0.854 -0.158,0.647 -0.123,0.427C-0.108,0.336 -0.063,0.256 0,0.197" style="fill:rgb(35,31,32);fill-rule:nonzero;"/>
                </g>
                <g transform="matrix(1,0,0,1,256.844,100.721)">
                    <path d="M0,-1.047C-0.999,-0.818 -3.388,-1.709 -5.183,-1.65C-5.183,-1.65 -7.456,-1.77 -8.354,-0.812C-8.354,-0.812 -9.158,-0.375 -8.666,0.723" style="fill:none;fill-rule:nonzero;stroke:rgb(35,31,32);stroke-width:0.75px;"/>
                </g>
                <g transform="matrix(1,0,0,1,263.82,102.42)">
                    <path d="M0,-8.253C0.021,-8.443 2.072,-9.626 3.776,-9.626C5.601,-9.626 6.428,-9.552 6.428,-8.594C6.428,-7.637 3.935,-7.477 2.619,-7.417C1.303,-7.357 0.253,-4.845 0,-3.888C-0.253,-2.93 1.091,-1.854 0,-0.656C-1.091,0.54 -4.186,0.492 -4.69,1.373" style="fill:none;fill-rule:nonzero;stroke:rgb(35,31,32);stroke-width:0.75px;"/>
                </g>
                <g transform="matrix(1,0,0,1,233.993,22.1045)">
                    <path d="M0,83.206C0,83.206 0.398,81.755 4.763,80.07C9.127,78.386 11.91,73.256 17.193,65.905C20.102,61.858 22.43,58.276 25.136,55.503C27.346,53.238 29.697,51.033 33.043,50.515C33.945,50.375 36.84,50.525 40.715,50.528C50.159,50.534 65.482,50.449 72.473,49.685C82.333,48.608 103.381,42.838 109.496,40.537C115.611,38.235 135.885,29.028 137.754,27.959C139.623,26.89 158.969,16.321 161.068,15.043C163.167,13.764 174.017,6.481 175.155,5.708C176.294,4.935 180.95,1.862 179.923,0.849C179.063,0 175.363,2.893 173.884,3.87C172.405,4.848 162.715,10.507 160.456,11.668C158.197,12.828 143.535,19.906 136.493,23.155C129.451,26.405 116.495,31.194 108.081,34.323C99.667,37.453 87.465,40.48 72.056,41.802C59.118,42.911 39.294,41.605 31.777,40.846C22.08,39.865 19.121,38.111 12.076,34.589C5.032,31.066 -11.659,26.396 -19.365,25.018C-27.071,23.64 -33.175,23.932 -33.175,23.932" style="fill:none;fill-rule:nonzero;stroke:rgb(35,31,32);stroke-width:0.75px;"/>
                </g>
                <g transform="matrix(1,0,0,1,258.026,74.0626)">
                    <path d="M0,-11.587C1.057,-11.197 1.975,-10.485 2.687,-9.604C3.413,-8.708 3.686,-7.56 3.968,-6.502C4.199,-5.399 4.435,-4.327 4.361,-3.172C4.332,-2.595 4.121,-2.001 3.897,-1.521L3.238,-0.024C3.23,-0.005 3.207,0.004 3.188,-0.004C3.174,-0.01 3.166,-0.023 3.165,-0.036C3.108,-0.598 3.152,-1.173 3.273,-1.724C3.405,-2.274 3.513,-2.735 3.569,-3.251C3.653,-3.763 3.666,-4.3 3.718,-4.841C3.79,-5.388 3.837,-5.93 3.736,-6.455C3.571,-7.539 2.82,-8.39 2.164,-9.184C1.512,-10.01 0.756,-10.754 -0.037,-11.523C-0.054,-11.535 -0.056,-11.56 -0.042,-11.576C-0.033,-11.588 -0.014,-11.591 0,-11.587" style="fill:rgb(35,31,32);fill-rule:nonzero;"/>
                </g>
                <g transform="matrix(1,0,0,1,239.611,120.376)">
                    <path d="M0,-0.751L146.822,-0.376L0,-0.001C-0.207,0 -0.375,-0.168 -0.376,-0.375C-0.376,-0.582 -0.209,-0.75 -0.002,-0.751L0,-0.751Z" style="fill:rgb(35,31,32);fill-rule:nonzero;"/>
                </g>
                <g transform="matrix(1,0,0,1,268.145,89.376)">
                    <path d="M0,-0.751L85.466,-0.376L0,-0.001C-0.207,0 -0.375,-0.167 -0.376,-0.374C-0.377,-0.581 -0.21,-0.75 -0.003,-0.751L0,-0.751Z" style="fill:rgb(35,31,32);fill-rule:nonzero;"/>
                </g>
                <g transform="matrix(1,0,0,1,352.611,61.377)">
                    <path d="M0,-0.752L50.466,-0.377L0,-0.002C-0.207,0 -0.376,-0.167 -0.378,-0.374C-0.379,-0.581 -0.213,-0.75 -0.005,-0.752L0,-0.752Z" style="fill:rgb(35,31,32);fill-rule:nonzero;"/>
                </g>
                <g transform="matrix(1,0,0,1,36.4326,137.101)">
                    <path d="M0,-27.654C-1.146,-25.567 -2.057,-23.345 -2.812,-21.083C-3.571,-18.82 -4.148,-16.494 -4.537,-14.138C-4.767,-12.966 -4.861,-11.772 -5.003,-10.588C-5.062,-9.395 -5.182,-8.204 -5.144,-7.008C-5.193,-4.616 -4.899,-2.235 -4.54,0.125C-4.912,-2.233 -5.218,-4.614 -5.182,-7.008C-5.226,-8.205 -5.112,-9.397 -5.059,-10.592C-4.923,-11.779 -4.834,-12.974 -4.611,-14.15C-4.234,-16.512 -3.667,-18.845 -2.918,-21.118C-2.172,-23.392 -1.274,-25.618 -0.13,-27.729C-0.11,-27.765 -0.064,-27.779 -0.028,-27.759C0.008,-27.74 0.022,-27.694 0.002,-27.658L0,-27.654Z" style="fill:rgb(35,31,32);fill-rule:nonzero;"/>
                </g>
                <g transform="matrix(1,0,0,1,34.7119,138.913)">
                    <path d="M0,-29.91C-1.763,-27.905 -3.177,-25.598 -4.393,-23.218C-5.601,-20.826 -6.586,-18.324 -7.356,-15.757C-7.691,-14.461 -8.093,-13.178 -8.321,-11.855L-8.707,-9.882L-8.978,-7.889C-9.199,-6.565 -9.215,-5.22 -9.337,-3.885C-9.404,-2.546 -9.377,-1.203 -9.402,0.138C-9.384,-1.203 -9.417,-2.546 -9.355,-3.886C-9.24,-5.221 -9.23,-6.568 -9.015,-7.894L-8.753,-9.889L-8.376,-11.866C-8.154,-13.191 -7.758,-14.478 -7.428,-15.778C-6.669,-18.353 -5.693,-20.865 -4.494,-23.268C-3.283,-25.663 -1.882,-27.976 -0.109,-30.013C-0.082,-30.044 -0.034,-30.048 -0.003,-30.02C0.028,-29.993 0.031,-29.946 0.004,-29.915L0.004,-29.914L0,-29.91Z" style="fill:rgb(35,31,32);fill-rule:nonzero;"/>
                </g>
                <g transform="matrix(1,0,0,1,38.2896,132.355)">
                    <path d="M0,-24.018C-0.838,-21.991 -1.13,-19.752 -1.101,-17.557C-1.066,-15.351 -0.641,-13.164 0.042,-11.066L0.62,-9.515C0.809,-8.996 1.084,-8.514 1.312,-8.011C1.751,-6.995 2.366,-6.073 2.922,-5.118C3.5,-4.176 4.194,-3.312 4.825,-2.405L6.974,0.121L4.811,-2.394C4.174,-3.297 3.474,-4.159 2.89,-5.097C2.329,-6.05 1.708,-6.97 1.262,-7.987C1.031,-8.489 0.752,-8.97 0.56,-9.49L-0.03,-11.042C-0.726,-13.142 -1.166,-15.336 -1.213,-17.555C-1.253,-19.766 -0.979,-22.009 -0.135,-24.082C-0.12,-24.121 -0.076,-24.139 -0.038,-24.123C0,-24.108 0.019,-24.065 0.003,-24.026L0,-24.018Z" style="fill:rgb(35,31,32);fill-rule:nonzero;"/>
                </g>
                <g transform="matrix(1,0,0,1,34.7632,125.481)">
                    <path d="M0,-18.418C-3.471,-16.041 -6.663,-13.246 -9.536,-10.168C-10.984,-8.638 -12.302,-6.987 -13.533,-5.278C-14.772,-3.571 -15.813,-1.732 -16.763,0.148C-15.824,-1.737 -14.794,-3.585 -13.563,-5.3C-12.342,-7.018 -11.032,-8.678 -9.591,-10.219C-6.73,-13.319 -3.555,-16.135 -0.082,-18.543C-0.048,-18.566 -0.001,-18.559 0.022,-18.524C0.046,-18.49 0.038,-18.443 0.003,-18.42L0,-18.418Z" style="fill:rgb(35,31,32);fill-rule:nonzero;"/>
                </g>
            </g>
        </g>
    </g>
</svg>
